<svg width="133" height="29" viewBox="0 0 133 29" fill="none" xmlns="http://www.w3.org/2000/svg">
<path d="M18.2351 28.0625C17.3809 28.4375 16.4539 28.625 15.4539 28.625C13.433 28.625 11.7247 27.5729 10.3289 25.4688L8.98511 23.4375C6.29761 23.3958 4.15177 22.4792 2.54761 20.6875C0.901774 18.7917 0.0788575 16.1771 0.0788575 12.8437C0.0788575 9.38542 0.933024 6.73958 2.64136 4.90625C4.24552 3.17708 6.45386 2.3125 9.26636 2.3125C12.058 2.3125 14.2768 3.19792 15.9226 4.96875C17.6309 6.80208 18.4851 9.42708 18.4851 12.8437C18.4851 15.6562 17.9434 17.9062 16.8601 19.5937C15.7768 21.2604 14.3184 22.3854 12.4851 22.9687L12.9851 23.75C13.4851 24.5208 14.2247 24.9271 15.2039 24.9688C16.0997 24.9688 17.1101 24.7292 18.2351 24.25V28.0625ZM14.6726 12.9062C14.6726 10.5729 14.183 8.78125 13.2039 7.53125C12.2455 6.26042 10.9434 5.625 9.29761 5.625C7.65177 5.625 6.33927 6.26042 5.36011 7.53125C4.38094 8.78125 3.89136 10.5729 3.89136 12.9062C3.89136 15.2187 4.38094 17 5.36011 18.25C6.33927 19.4792 7.65177 20.0937 9.29761 20.0937C10.9434 20.0937 12.2455 19.4792 13.2039 18.25C14.183 17 14.6726 15.2187 14.6726 12.9062ZM33.0334 20.25C32.0751 22.2708 30.5334 23.2813 28.4084 23.2813C25.7209 23.2813 23.9501 22.2292 23.0959 20.125C22.7834 19.3958 22.6272 18.5104 22.6272 17.4687V7.78125H26.3147V17.0937C26.3147 18.0937 26.5543 18.8437 27.0334 19.3437C27.5126 19.8229 28.0959 20.0625 28.7834 20.0625C29.4918 20.0625 30.0855 19.9687 30.5647 19.7812C31.0439 19.5729 31.4605 19.2708 31.8147 18.875C32.5855 17.9792 32.9918 16.7812 33.0334 15.2812V7.78125H36.7209V23H33.0334V20.25ZM42.8445 7.78125H46.532V23H42.8445V7.78125ZM42.407 2.90625C42.407 2.23958 42.6049 1.71875 43.0007 1.34375C43.3966 0.947916 43.9591 0.75 44.6882 0.75C45.3966 0.75 45.9486 0.947916 46.3445 1.34375C46.7611 1.71875 46.9695 2.23958 46.9695 2.90625C46.9695 3.57292 46.7611 4.10417 46.3445 4.5C45.9486 4.875 45.3966 5.0625 44.6882 5.0625C43.9591 5.0625 43.3966 4.875 43.0007 4.5C42.6049 4.10417 42.407 3.57292 42.407 2.90625ZM51.6609 20L59.5359 10.8125H51.6609V7.8125H63.5984V10.8125L55.9734 20H63.5984V23H51.6609V20ZM67.1333 20L75.0083 10.8125H67.1333V7.8125H79.0708V10.8125L71.4458 20H79.0708V23H67.1333V20ZM84.0432 7.78125H87.7307V23H84.0432V7.78125ZM83.6057 2.90625C83.6057 2.23958 83.8036 1.71875 84.1995 1.34375C84.5953 0.947916 85.1578 0.75 85.887 0.75C86.5953 0.75 87.1474 0.947916 87.5432 1.34375C87.9599 1.71875 88.1682 2.23958 88.1682 2.90625C88.1682 3.57292 87.9599 4.10417 87.5432 4.5C87.1474 4.875 86.5953 5.0625 85.887 5.0625C85.1578 5.0625 84.5953 4.875 84.1995 4.5C83.8036 4.10417 83.6057 3.57292 83.6057 2.90625ZM99.7659 7.40625C100.724 7.40625 101.578 7.57292 102.328 7.90625C103.099 8.21875 103.745 8.63542 104.266 9.15625C105.308 10.1562 105.922 11.4167 106.11 12.9375L102.391 13.0312C102.224 12.3646 101.912 11.8125 101.453 11.375C101.016 10.9375 100.505 10.7187 99.9221 10.7187C99.3388 10.7187 98.8388 10.8125 98.4221 11C98.0055 11.1667 97.6409 11.4375 97.3284 11.8125C96.62 12.6875 96.2659 13.8958 96.2659 15.4375C96.2659 16.9792 96.5992 18.1458 97.2659 18.9375C97.9325 19.7083 98.7346 20.0937 99.6721 20.0937C100.63 20.0937 101.318 19.875 101.735 19.4375C102.172 18.9792 102.391 18.3646 102.391 17.5937H106.11C106.11 19.2604 105.558 20.6458 104.453 21.75C103.328 22.875 101.755 23.4375 99.7346 23.4375C97.7346 23.4375 96.0575 22.7083 94.7034 21.25C93.2659 19.6875 92.5471 17.7396 92.5471 15.4062C92.5471 12.9479 93.2659 10.9792 94.7034 9.5C96.0575 8.10417 97.745 7.40625 99.7659 7.40625ZM115.556 14.125C116.764 14.125 118.16 14.3229 119.743 14.7187V13.2187C119.743 12.1562 119.524 11.375 119.087 10.875C118.67 10.3542 117.972 10.0937 116.993 10.0937C116.035 10.0937 115.295 10.2917 114.774 10.6875C114.254 11.0625 113.993 11.6042 113.993 12.3125H109.962C109.962 10.5833 110.566 9.33333 111.774 8.5625C113.004 7.79167 114.712 7.40625 116.899 7.40625C120.024 7.40625 122.045 8.5 122.962 10.6875C123.274 11.4375 123.431 12.3229 123.431 13.3437V23H120.212L119.931 20.9687C118.951 22.6146 117.451 23.4375 115.431 23.4375C113.472 23.4375 111.951 22.9583 110.868 22C109.868 21.0833 109.368 19.9271 109.368 18.5312C109.368 17.1146 109.92 16.0312 111.024 15.2812C112.129 14.5104 113.639 14.125 115.556 14.125ZM119.743 17.0625C118.514 16.7292 117.368 16.5625 116.306 16.5625C114.306 16.5625 113.306 17.2292 113.306 18.5625C113.306 19.125 113.535 19.6146 113.993 20.0312C114.451 20.4271 115.181 20.625 116.181 20.625C117.201 20.625 118.035 20.2917 118.681 19.625C119.347 18.9375 119.701 18.0833 119.743 17.0625ZM128.805 1.5625H132.493V23H128.805V1.5625Z" fill="#293264"/>
</svg>
